<?xml version="1.0" encoding="UTF-8" standalone="no"?>
<!-- Created with Inkscape (http://www.inkscape.org/) -->

<svg
   width="256.0px"
   height="256.0px"
   viewBox="0 0 256.0 256.0"
   version="1.1"
   id="SVGRoot"
   sodipodi:docname="logo.svg"
   inkscape:version="1.1 (c68e22c387, 2021-05-23)"
   xmlns:inkscape="http://www.inkscape.org/namespaces/inkscape"
   xmlns:sodipodi="http://sodipodi.sourceforge.net/DTD/sodipodi-0.dtd"
   xmlns="http://www.w3.org/2000/svg"
   xmlns:svg="http://www.w3.org/2000/svg">
  <sodipodi:namedview
     id="namedview88"
     pagecolor="#ffffff"
     bordercolor="#666666"
     borderopacity="1.0"
     inkscape:pageshadow="2"
     inkscape:pageopacity="0.0"
     inkscape:pagecheckerboard="0"
     inkscape:document-units="px"
     showgrid="true"
     inkscape:zoom="2.022349"
     inkscape:cx="231.16683"
     inkscape:cy="112.49295"
     inkscape:window-width="1440"
     inkscape:window-height="837"
     inkscape:window-x="-8"
     inkscape:window-y="-8"
     inkscape:window-maximized="1"
     inkscape:current-layer="layer1">
    <inkscape:grid
       type="xygrid"
       id="grid94" />
  </sodipodi:namedview>
  <defs
     id="defs83">
    <inkscape:path-effect
       effect="powerstroke"
       id="path-effect1951"
       is_visible="true"
       lpeversion="1"
       offset_points="1.0894558,0.54911162"
       not_jump="true"
       sort_points="true"
       interpolator_type="CentripetalCatmullRom"
       interpolator_beta="0.75"
       start_linecap_type="round"
       linejoin_type="spiro"
       miter_limit="4"
       scale_width="1"
       end_linecap_type="round" />
    <inkscape:path-effect
       effect="simplify"
       id="path-effect1949"
       is_visible="true"
       lpeversion="1"
       steps="1"
       threshold="0.0032025118"
       smooth_angles="0"
       helper_size="0"
       simplify_individual_paths="false"
       simplify_just_coalesce="false"
       step="1" />
    <inkscape:path-effect
       effect="powerstroke"
       id="path-effect1944"
       is_visible="true"
       lpeversion="1"
       offset_points="0.29863924,0.54911162"
       not_jump="true"
       sort_points="true"
       interpolator_type="CentripetalCatmullRom"
       interpolator_beta="0.75"
       start_linecap_type="round"
       linejoin_type="spiro"
       miter_limit="4"
       scale_width="1"
       end_linecap_type="round" />
    <inkscape:path-effect
       effect="simplify"
       id="path-effect1942"
       is_visible="true"
       lpeversion="1"
       steps="1"
       threshold="0.0032025118"
       smooth_angles="0"
       helper_size="0"
       simplify_individual_paths="false"
       simplify_just_coalesce="false"
       step="1" />
    <inkscape:path-effect
       effect="powerstroke"
       id="path-effect1937"
       is_visible="true"
       lpeversion="1"
       offset_points="0.46081771,0.4392893"
       not_jump="true"
       sort_points="true"
       interpolator_type="CentripetalCatmullRom"
       interpolator_beta="0.75"
       start_linecap_type="round"
       linejoin_type="spiro"
       miter_limit="4"
       scale_width="1"
       end_linecap_type="round" />
    <inkscape:path-effect
       effect="simplify"
       id="path-effect1935"
       is_visible="true"
       lpeversion="1"
       steps="1"
       threshold="0.0032025118"
       smooth_angles="0"
       helper_size="0"
       simplify_individual_paths="false"
       simplify_just_coalesce="false"
       step="1" />
    <inkscape:path-effect
       effect="powerstroke"
       id="path-effect1930"
       is_visible="true"
       lpeversion="1"
       offset_points="1.2975373,0.17571572"
       not_jump="true"
       sort_points="true"
       interpolator_type="CentripetalCatmullRom"
       interpolator_beta="0.75"
       start_linecap_type="round"
       linejoin_type="spiro"
       miter_limit="4"
       scale_width="1"
       end_linecap_type="round" />
    <inkscape:path-effect
       effect="simplify"
       id="path-effect1928"
       is_visible="true"
       lpeversion="1"
       steps="1"
       threshold="0.0032025118"
       smooth_angles="0"
       helper_size="0"
       simplify_individual_paths="false"
       simplify_just_coalesce="false"
       step="1" />
    <inkscape:path-effect
       effect="powerstroke"
       id="path-effect1773"
       is_visible="true"
       lpeversion="1"
       offset_points="1.1640964,0.030916475"
       not_jump="true"
       sort_points="true"
       interpolator_type="CentripetalCatmullRom"
       interpolator_beta="0.75"
       start_linecap_type="round"
       linejoin_type="spiro"
       miter_limit="4"
       scale_width="1"
       end_linecap_type="round" />
    <inkscape:path-effect
       effect="simplify"
       id="path-effect1771"
       is_visible="true"
       lpeversion="1"
       steps="1"
       threshold="0.0032025118"
       smooth_angles="0"
       helper_size="0"
       simplify_individual_paths="false"
       simplify_just_coalesce="false"
       step="1" />
    <inkscape:path-effect
       effect="powerstroke"
       id="path-effect1766"
       is_visible="true"
       lpeversion="1"
       offset_points="1.5255856,0.030916475"
       not_jump="true"
       sort_points="true"
       interpolator_type="CentripetalCatmullRom"
       interpolator_beta="0.75"
       start_linecap_type="round"
       linejoin_type="spiro"
       miter_limit="4"
       scale_width="1"
       end_linecap_type="round" />
    <inkscape:path-effect
       effect="simplify"
       id="path-effect1764"
       is_visible="true"
       lpeversion="1"
       steps="1"
       threshold="0.0032025118"
       smooth_angles="0"
       helper_size="0"
       simplify_individual_paths="false"
       simplify_just_coalesce="false"
       step="1" />
    <inkscape:path-effect
       effect="powerstroke"
       id="path-effect1759"
       is_visible="true"
       lpeversion="1"
       offset_points="1.9302843,0.030916475"
       not_jump="true"
       sort_points="true"
       interpolator_type="CentripetalCatmullRom"
       interpolator_beta="0.75"
       start_linecap_type="round"
       linejoin_type="spiro"
       miter_limit="4"
       scale_width="1"
       end_linecap_type="round" />
    <inkscape:path-effect
       effect="simplify"
       id="path-effect1757"
       is_visible="true"
       lpeversion="1"
       steps="1"
       threshold="0.0032025118"
       smooth_angles="0"
       helper_size="0"
       simplify_individual_paths="false"
       simplify_just_coalesce="false"
       step="1" />
    <inkscape:path-effect
       effect="powerstroke"
       id="path-effect1752"
       is_visible="true"
       lpeversion="1"
       offset_points="0.1157967,0.030916475"
       not_jump="true"
       sort_points="true"
       interpolator_type="CentripetalCatmullRom"
       interpolator_beta="0.75"
       start_linecap_type="round"
       linejoin_type="spiro"
       miter_limit="4"
       scale_width="1"
       end_linecap_type="round" />
    <inkscape:path-effect
       effect="simplify"
       id="path-effect1750"
       is_visible="true"
       lpeversion="1"
       steps="1"
       threshold="0.0032025118"
       smooth_angles="0"
       helper_size="0"
       simplify_individual_paths="false"
       simplify_just_coalesce="false"
       step="1" />
    <inkscape:path-effect
       effect="powerstroke"
       id="path-effect1745"
       is_visible="true"
       lpeversion="1"
       offset_points="1.4645203,0.030916475"
       not_jump="true"
       sort_points="true"
       interpolator_type="CentripetalCatmullRom"
       interpolator_beta="0.75"
       start_linecap_type="round"
       linejoin_type="spiro"
       miter_limit="4"
       scale_width="1"
       end_linecap_type="round" />
    <inkscape:path-effect
       effect="simplify"
       id="path-effect1743"
       is_visible="true"
       lpeversion="1"
       steps="1"
       threshold="0.0032025118"
       smooth_angles="0"
       helper_size="0"
       simplify_individual_paths="false"
       simplify_just_coalesce="false"
       step="1" />
    <inkscape:path-effect
       effect="powerstroke"
       id="path-effect1738"
       is_visible="true"
       lpeversion="1"
       offset_points="1.2325111,0.030916475"
       not_jump="true"
       sort_points="true"
       interpolator_type="CentripetalCatmullRom"
       interpolator_beta="0.75"
       start_linecap_type="round"
       linejoin_type="spiro"
       miter_limit="4"
       scale_width="1"
       end_linecap_type="round" />
    <inkscape:path-effect
       effect="simplify"
       id="path-effect1736"
       is_visible="true"
       lpeversion="1"
       steps="1"
       threshold="0.0032025118"
       smooth_angles="0"
       helper_size="0"
       simplify_individual_paths="false"
       simplify_just_coalesce="false"
       step="1" />
    <inkscape:path-effect
       effect="powerstroke"
       id="path-effect1731"
       is_visible="true"
       lpeversion="1"
       offset_points="0.70137955,0.19502054"
       not_jump="true"
       sort_points="true"
       interpolator_type="CentripetalCatmullRom"
       interpolator_beta="0.75"
       start_linecap_type="round"
       linejoin_type="spiro"
       miter_limit="4"
       scale_width="1"
       end_linecap_type="round" />
    <inkscape:path-effect
       effect="simplify"
       id="path-effect1729"
       is_visible="true"
       lpeversion="1"
       steps="1"
       threshold="0.0032025118"
       smooth_angles="0"
       helper_size="0"
       simplify_individual_paths="false"
       simplify_just_coalesce="false"
       step="1" />
    <inkscape:path-effect
       effect="powerstroke"
       id="path-effect1724"
       is_visible="true"
       lpeversion="1"
       offset_points="1.5,0.5"
       not_jump="true"
       sort_points="true"
       interpolator_type="CentripetalCatmullRom"
       interpolator_beta="0.75"
       start_linecap_type="round"
       linejoin_type="spiro"
       miter_limit="4"
       scale_width="1"
       end_linecap_type="round" />
    <inkscape:path-effect
       effect="simplify"
       id="path-effect1722"
       is_visible="true"
       lpeversion="1"
       steps="1"
       threshold="0.0032025118"
       smooth_angles="0"
       helper_size="0"
       simplify_individual_paths="false"
       simplify_just_coalesce="false"
       step="1" />
  </defs>
  <g
     inkscape:label="Capa 1"
     inkscape:groupmode="layer"
     id="layer1">
    <rect
       style="fill:#008000"
       id="rect165"
       width="255"
       height="255"
       x="0"
       y="0" />
    <path
       style="fill:#ff00ff"
       id="path346"
       d="m 21.616734,35.096154 c 0.259736,0.368914 0.544598,0.721363 0.77921,1.106743 2.160648,3.549138 3.73815,7.434774 5.17468,11.318232 1.923286,5.199334 2.531351,7.406711 4.19601,12.753168 2.315545,8.130307 4.294639,16.352173 6.114177,24.60631 0.399702,1.813203 0.714436,3.644764 1.130669,5.454243 0.490175,2.130928 1.058676,4.243078 1.588013,6.364616 2.706696,11.255494 3.989638,22.776264 4.77846,34.306274 0.225113,3.29043 0.447478,6.58236 0.557464,9.87864 0.110725,3.31841 0.06966,6.64015 0.104494,9.96022 -0.07221,11.91922 -1.142632,23.85256 -3.680249,35.51086 -1.298366,5.96495 -2.178928,8.5236 -3.896663,14.25074 -2.071192,6.1954 -4.422255,12.36559 -8.095841,17.81175 -1.531423,2.27036 -2.10419,2.79348 -3.858253,4.77094 -1.696329,1.69571 -3.5697,3.23868 -5.607721,4.51073 -0.561575,0.35052 -2.306791,1.29973 -1.737052,0.96265 10.703522,-6.33267 14.561634,-7.93099 9.401766,-5.70836 -6.579246,2.18745 -6.274305,0.966 -15.829644,8.26414 -0.519032,0.39643 0.647495,1.18719 1.181802,1.56277 0.322298,0.22656 0.785313,0.064 1.17797,0.096 2.291835,-0.0497 4.583999,-0.0795 6.875899,-0.12428 0.977373,-0.0191 1.959198,0.0243 2.931727,-0.0747 3.353177,-0.34147 6.47761,-1.12249 9.775516,-1.82917 15.778772,-4.34249 31.264358,-9.68337 46.550219,-15.51352 7.784957,-2.96925 13.459098,-5.33108 21.054423,-8.43173 0,0 8.27757,-6.53313 8.27757,-6.53313 v 0 c -3.38422,1.46461 -6.7513,2.96949 -10.15266,4.39383 -17.992956,7.53466 -36.396498,14.37139 -55.534869,18.36445 -2.999127,0.55829 -5.790951,1.17673 -8.822919,1.41657 -3.024857,0.23928 -6.084497,-0.0847 -9.107577,-0.1768 -2.840388,-0.0465 1.901524,-0.22294 -0.35624,1.36533 -3.93035,2.76489 -8.355991,4.74831 -12.533986,7.12247 0.223869,-0.10433 0.438521,-0.2313 0.671607,-0.31298 0.825286,-0.28921 1.702452,-0.4144 2.524277,-0.71464 6.371712,-2.18542 1.540678,-0.42794 15.150943,-8.27324 2.596701,-1.4968 4.834307,-3.56557 6.834263,-5.7742 1.616807,-2.07741 2.026512,-2.46807 3.397445,-4.82602 3.170959,-5.45391 5.13585,-11.49586 6.775965,-17.5562 0.565525,-2.20492 1.188416,-4.39593 1.696574,-6.61477 0.564072,-2.463 1.047889,-4.94408 1.51914,-7.4265 1.138973,-5.99981 2.0443,-11.11734 2.5656,-17.21652 0.537949,-6.29397 0.454937,-11.90366 0.506656,-18.23 -0.07012,-5.82955 -0.109059,-14.22702 -0.42856,-20.04553 -0.244049,-4.44443 -1.201809,-14.03567 -1.670345,-18.45939 -0.314319,-2.96768 -0.603369,-5.93899 -0.999696,-8.896835 C 52.256405,95.967439 51.790013,93.443999 51.38652,90.911336 50.985373,88.719121 50.631324,86.517762 50.183079,84.33469 49.522699,81.118465 48.283207,76.387162 47.478248,73.235485 45.873822,66.953632 44.281206,60.665945 42.398183,54.459977 40.600261,48.266765 38.800472,42.074054 37.005222,35.880087 36.587065,34.437363 36.207419,32.983238 35.763104,31.548354 35.651031,31.186422 34.623699,28.30379 34.363478,27.571626 c 0,0 -12.746744,7.524528 -12.746744,7.524528 z" />
    <path
       style="fill:#ff00ff"
       id="path352"
       d="m 93.042051,14.564245 c 0.573477,0.724788 1.228737,1.391784 1.720431,2.174363 2.441479,3.885859 3.977594,7.779544 5.417508,12.206895 1.36045,4.182987 2.64963,8.397838 3.64825,12.681638 4.48734,19.249435 4.39623,23.584864 6.88455,44.132046 1.46667,23.298503 2.42262,29.334593 1.63767,52.496953 -0.25624,7.5613 -0.85511,15.11155 -1.59906,22.64053 -1.09739,11.10595 -2.72488,21.88325 -5.52876,32.67366 -0.92465,3.5584 -2.24137,7.00321 -3.36206,10.50482 -1.06081,2.45995 -2.121615,4.9199 -3.182422,7.37985 0,0 10.715642,-4.99725 10.715642,-4.99725 v 0 c 0.67568,-2.31629 1.35136,-4.63259 2.02704,-6.94889 0.66711,-3.31605 1.4976,-6.60338 2.00134,-9.94815 1.62435,-10.78547 2.06745,-20.20071 2.40451,-31.22224 0.76228,-24.92517 -0.0326,-49.84727 -0.93352,-74.757041 -0.50637,-8.322259 -1.01708,-16.644256 -1.51911,-24.966778 -0.43064,-7.138921 -0.63548,-14.294646 -1.27888,-21.417544 -0.55639,-6.159642 -2.06388,-15.91287 -3.71159,-22.396114 -0.67319,-2.648817 -1.73592,-5.1824239 -2.73899,-7.7157259 0,0 -12.602549,7.4789779 -12.602549,7.4789779 z" />
    <path
       style="fill:#ff00ff"
       id="path358"
       d="m 43.091722,17.178869 c 9.317699,3.219885 18.729422,6.230545 28.307551,8.590495 2.833263,0.698086 5.691465,1.290755 8.537198,1.936133 6.213513,0.853534 11.784897,1.802974 18.060837,1.960753 4.671592,0.117444 12.030022,-0.346523 16.719802,-1.085646 5.3891,-0.849337 9.43189,-2.099009 14.63705,-3.522894 4.93203,-1.458297 9.76818,-3.230498 14.51693,-5.201688 1.05604,-0.43836 3.74315,-1.598419 4.89473,-2.252856 4.56242,-2.592782 9.0808,-5.262307 13.62121,-7.8934604 1.39986,-0.9596907 2.36016,-2.3734659 3.4386,-3.655496 0,0 -13.48698,5.7224694 -13.48698,5.7224694 v 0 c -0.96777,1.149125 -1.92873,2.303365 -3.24339,3.078215 3.52238,-2.00456 7.04552,-4.007786 10.56714,-6.0136822 0.75757,-0.431508 -1.50237,0.8865787 -2.27499,1.2905172 -1.03914,0.543277 -2.09335,1.058311 -3.15792,1.54989 -5.00563,2.311414 -10.14802,4.333366 -15.38203,6.065042 -5.68095,1.703748 -8.89295,2.835851 -14.81246,3.895291 -11.56837,2.070441 -23.22547,1.762969 -34.752488,-0.412319 -2.816786,-0.643139 -5.653521,-1.204423 -8.450357,-1.929418 -5.626403,-1.458476 -9.864296,-2.834259 -15.21311,-4.987759 -3.486413,-1.403674 -7.13053,-2.962301 -10.125481,-5.2935583 0,0 -12.401842,8.1599713 -12.401842,8.1599713 z" />
    <path
       style="fill:#ff00ff"
       id="path360"
       d="m 102.34526,211.25888 c 2.42905,-0.70115 2.5684,-0.62823 5.39584,-2.35006 5.36303,-3.26592 10.80494,-6.42938 15.91297,-10.08127 2.0879,-1.4927 3.76325,-3.49224 5.5919,-5.29323 6.46936,-6.37148 5.76117,-5.84924 11.74774,-12.84102 4.99605,-6.28264 10.39392,-12.37308 13.42749,-19.93061 3.6479,-9.088 4.45239,-18.98793 5.59744,-28.5985 0.39891,-3.66352 0.82983,-7.32369 1.19673,-10.99055 1.93562,-19.34447 0.14762,-3.74509 2.2069,-22.952567 1.10917,-10.3455 2.3709,-20.675885 3.66822,-30.999089 1.62867,-12.7215 3.13789,-25.454415 5.03976,-38.139159 0.76855,-5.986352 1.48018,-11.980119 2.11995,-17.981565 0.0455,-0.292783 0.29994,-2.2736815 0.53564,-2.6973072 0.1225,-0.2201688 0.3964,-0.3111195 0.59459,-0.4666793 -3.93652,2.4226075 -8.00804,4.6384345 -11.80956,7.2678215 -0.27477,0.190047 0.67711,0.07706 0.97669,0.224921 0.52339,0.258329 0.96962,0.650008 1.45442,0.975012 3.13563,2.803409 5.81839,6.116843 8.12524,9.629311 0.73434,1.118134 1.40908,2.274299 2.11362,3.411449 0.81854,1.53799 1.69157,3.04819 2.45561,4.613969 0.84932,1.740548 1.59826,3.528363 2.38177,5.29951 3.25374,7.355159 2.02732,4.547277 4.98648,12.067146 4.57044,11.614505 0.39672,0.888586 4.72656,12.059542 2.2791,5.586856 4.26831,11.284033 6.38775,16.931626 1.92617,5.13258 2.42721,6.176298 4.16838,11.397701 0.69478,2.083497 1.3266,4.187461 1.9899,6.281191 3.53556,12.978397 5.2402,26.373707 6.20832,39.766697 0.21088,2.91739 0.32575,5.84092 0.48863,8.76138 0.55901,9.35019 0.9397,18.71841 1.9536,28.03455 0.18175,1.66997 0.34595,3.34343 0.60827,5.00265 0.25927,1.63995 0.63699,3.25897 0.95549,4.88846 1.54332,7.10077 3.52188,14.14817 4.23834,21.40227 0.10467,1.05976 0.13674,2.12544 0.20511,3.18816 -0.0265,0.89812 -0.053,1.79624 -0.0795,2.69437 0,0 12.35484,-6.31698 12.35484,-6.31698 v 0 c -0.0518,-0.8999 -0.10354,-1.79979 -0.15531,-2.69968 -0.36375,-2.84406 -0.44605,-3.86508 -1.03014,-6.76042 -1.1918,-5.90772 -2.88819,-11.7025 -4.12254,-17.60052 -0.98073,-5.07286 -2.00951,-10.14386 -2.69395,-15.26815 -0.96636,-7.23499 -1.44406,-14.52485 -2.15023,-21.78645 -0.67728,-8.92741 -1.2367,-17.87138 -2.1851,-26.77571 -0.54578,-5.12421 -1.21999,-10.6839 -2.25033,-15.754828 -0.45387,-2.233778 -1.0741,-4.430504 -1.61115,-6.645757 -0.60942,-2.144054 -1.16093,-4.305418 -1.82825,-6.432161 -0.61226,-1.951259 -1.33259,-3.866971 -2.00896,-5.796942 -0.66897,-1.908844 -1.31478,-3.826322 -2.02706,-5.719434 -2.12214,-5.640349 -4.54343,-11.170629 -6.59672,-16.838483 -0.80554,-1.916588 -1.63826,-3.821973 -2.4166,-5.749766 -3.8754,-9.598661 -7.29349,-19.381488 -11.41613,-28.881334 -1.1267,-2.257236 -2.06791,-4.355123 -3.46574,-6.444781 -0.47444,-0.709247 -1.04429,-1.349831 -1.57266,-2.019866 -1.49114,-1.890944 -2.94942,-3.827924 -4.67992,-5.5108926 -0.46642,-0.4373805 -0.91571,-0.8937769 -1.39926,-1.3121416 -0.40804,-0.3530306 -0.77776,-1.2140931 -1.27296,-0.9998471 -12.21301,5.2838983 -13.5359,3.2353595 -13.80316,10.9218613 -0.19379,5.862748 -0.76959,11.696003 -1.34405,17.531621 -0.36135,4.919869 -0.83028,9.828246 -1.22559,14.745194 -0.59915,7.452315 -1.00899,14.919642 -1.73092,22.362298 -1.28233,13.069451 -0.6081,6.403714 -2.02768,19.996705 -1.47045,14.908094 -2.69037,29.841754 -4.61561,44.702554 -1.20443,7.63171 -1.81248,13.16789 -3.96,20.5407 -0.81903,2.81189 -1.79861,5.58549 -2.97925,8.26572 -3.18842,7.23818 -8.23767,13.35968 -13.10326,19.49787 -5.20033,5.90688 -6.35836,7.53957 -12.1236,12.8431 -2.07635,1.91007 -6.17825,2.69276 -6.4309,5.5027 -0.20503,2.28027 4.09082,-2.06544 6.20157,-2.95224 1.39735,-0.58707 -3.7386,2.22695 -4.13038,1.90134 0,0 -11.76925,8.87859 -11.76925,8.87859 z" />
    <path
       style="fill:#ff00ff"
       id="path366"
       d="m 115.39847,99.928143 c 2.61804,0.584647 5.00802,1.887727 7.52986,2.744757 4.45563,1.5142 9.23473,2.81272 13.93429,3.18052 3.54929,0.27778 7.12021,0.0329 10.68031,0.0493 3.9098,-0.40831 7.85105,-0.58328 11.72939,-1.22491 8.25632,-1.36592 17.32331,-3.96558 25.26273,-6.562477 7.61085,-2.489424 14.73419,-5.218139 21.98168,-8.61421 3.19449,-1.496893 6.27843,-3.219181 9.41764,-4.828771 10.16152,-5.349861 19.90397,-11.378054 29.46378,-17.710354 0,0 -11.62886,4.557632 -11.62886,4.557632 v 0 c -6.68064,4.602656 -3.09262,2.207065 -10.7925,7.143977 -0.35824,0.241917 0.77449,-0.38419 1.16173,-0.576285 -3.21747,1.702505 -6.37522,3.52301 -9.65241,5.107516 -7.08743,3.426738 -14.90475,6.550689 -22.35558,9.054758 -8.09456,2.720415 -16.20757,5.058037 -24.66719,6.354885 -3.71048,0.568811 -7.47758,0.671298 -11.21636,1.006947 -3.2542,-0.150776 -6.53232,-0.03059 -9.76259,-0.452328 -4.32166,-0.564232 -8.48285,-2.037539 -12.4104,-3.859852 -2.25637,-1.046917 -4.25657,-2.508161 -6.44364,-3.670352 0,0 -12.23188,8.299207 -12.23188,8.299207 z" />
    <path
       style="fill:none;stroke:#000000;stroke-width:1px;stroke-linecap:butt;stroke-linejoin:miter;stroke-opacity:1"
       d="m 75,220 c -1.658531,9.39434 -3.33822,18.78497 -4.975592,28.18302 -0.0075,0.0429 -0.0614,0.87726 0,0.93867 0.592486,0.59248 7.052704,1.09087 8.072518,0.75093 1.326785,-0.44226 -0.175301,-0.18773 1.314131,-0.18773 0.187733,0 0.381072,0.0455 0.563199,0 0.13575,-0.0339 0.364073,-0.3272 0.375466,-0.18774 C 80.366347,249.70064 80.116574,249.83238 80,250"
       id="path1679" />
    <path
       style="fill:none;stroke:#000000;stroke-width:1px;stroke-linecap:butt;stroke-linejoin:miter;stroke-opacity:1"
       d="m 85,250 c -0.423695,-0.10504 -1.093027,0.0834 -1.271084,-0.31511 -0.120937,-0.27071 0.99654,-3.71059 1.126398,-4.13013 0.638025,-2.06131 1.531929,-4.06522 1.87733,-6.19519 0.638964,-3.94028 1.344783,-7.87111 1.87733,-11.82718 0.184427,-1.37003 0.322337,-2.74876 0.375466,-4.13012 0.01226,-0.31885 -0.288636,-0.63596 -0.187733,-0.93867 C 89.077829,221.62324 89.669355,220.84204 90,220"
       id="path1681" />
    <path
       style="fill:none;stroke:#000000;stroke-width:1px;stroke-linecap:butt;stroke-linejoin:miter;stroke-opacity:1"
       d="m 95,245 c 0.122787,-0.0654 0.321389,-0.0652 0.368362,-0.19617 0.980216,-2.73246 0.793649,-5.7519 1.126398,-8.63572 0.397692,-3.44667 0.823465,-6.89065 1.314131,-10.32532 0.215325,-1.50727 0.483277,-3.00672 0.750932,-4.50559 0.04536,-0.25399 -0.02695,-0.60781 0.187733,-0.75093 0.329306,-0.21954 0.336085,0.73259 0.375466,1.1264 0.188942,1.88941 0.563199,3.72149 0.563199,5.63199 0,3.80657 -0.613093,4.02623 2.252799,0.75093 0.4962,-0.56709 1.04974,-1.08677 1.50186,-1.6896 1.02985,-1.37313 3.62377,-6.61957 5.25652,-6.94612 0.13722,-0.0274 0.10033,0.2662 0.18774,0.37547 0.16585,0.20732 0.47247,0.31369 0.5632,0.5632 0.17241,0.47414 0.18773,0.99734 0.18773,1.50186 0,1.72666 -0.41441,3.75795 -0.5632,5.44426 -0.80381,9.1099 1.02193,-4.72474 -1.50186,10.13758 -0.56154,3.30685 -0.96293,6.63924 -1.50187,9.94985 -0.19728,1.21187 -0.18773,2.34491 -0.18773,3.56693 0,0.37546 0,0.75093 0,1.12639 0,0.0626 0.024,0.24554 0,0.18774 C 105.56533,251.55096 105.2938,250.77105 105,250"
       id="path1683" />
    <path
       style="fill:none;stroke:#000000;stroke-width:1px;stroke-linecap:butt;stroke-linejoin:miter;stroke-opacity:1"
       d="m 120,245 c 0.11228,0.8107 0.41898,1.61778 0.33685,2.43209 -0.0199,0.19689 -0.41819,-0.0531 -0.5632,-0.18773 -0.74649,-0.69317 -1.44219,-1.44673 -2.06506,-2.2528 -0.70232,-0.90889 -1.78502,-3.06087 -2.06506,-4.13013 -1.25935,-4.8084 -1.30152,-7.33491 -0.75094,-12.01491 0.12516,-1.06382 0.0636,-2.16671 0.37547,-3.19146 0.57184,-1.87889 1.39263,-3.67866 2.2528,-5.44426 0.66697,-1.36904 2.96588,-4.04375 4.69332,-4.13012 0.6101,-0.0305 3.94239,2.62826 3.94239,2.62826 2.591,2.15916 3.3792,5.76557 3.3792,9.01118 0,1.81584 0.14507,3.65919 -0.18774,5.44426 -0.75323,4.04005 -2.95144,9.0195 -5.63199,12.20265 -0.57004,0.67693 -1.19048,1.31926 -1.87733,1.87733 -1.57254,1.27769 -6.44388,2.53045 -6.94612,-0.5632 -0.09,-0.55427 0.0716,-1.12077 0.10741,-1.68116"
       id="path1685" />
    <path
       style="fill:none;stroke:#000000;stroke-width:1px;stroke-linecap:butt;stroke-linejoin:miter;stroke-opacity:1"
       d="m 125,210 c 0.63584,0.087 1.38086,0.62769 1.90751,0.26096 4.295,-2.99086 3.30522,-5.82395 6.38292,-9.94985 C 133.63675,199.84683 134.43014,200.1037 135,200"
       id="path1687" />
    <path
       style="fill:none;stroke:#000000;stroke-width:1px;stroke-linecap:butt;stroke-linejoin:miter;stroke-opacity:1"
       d="m 135,250 c -0.82017,-0.79339 -1.90789,-1.3818 -2.4605,-2.38018 -0.33336,-0.60225 0,-1.37671 0,-2.06506 0,-0.81351 -0.0711,-1.63013 0,-2.44053 0.24215,-2.76054 0.50239,-5.52367 0.93866,-8.26025 0.45655,-2.86379 1.64029,-6.482 2.62826,-9.19892 0.46066,-1.26681 0.99543,-2.50545 1.50187,-3.75466 3.19635,-7.88433 -0.52471,1.84931 2.25279,-6.94612 0.0267,-0.0844 0.18353,0.0993 0.18774,0.18773 0.1131,2.37526 0,4.75591 0,7.13386 0,8.29144 -0.50106,16.74115 0.75093,24.96849 0.10734,0.70537 -0.12621,1.88122 0.5632,2.06506 0.84,0.224 1.73709,-0.61425 2.25279,-1.31413 4.01586,-5.4501 4.70713,-12.51118 5.44426,-18.96103 0.15648,-1.36922 0.14104,-2.75279 0.18773,-4.13013 0.0785,-2.31489 0.18774,-4.6299 0.18774,-6.94612 0,-3.39052 -1.25557,-3.52284 0.56453,-2.95801"
       id="path1689" />
    <path
       style="fill:none;stroke:#000000;stroke-width:1px;stroke-linecap:butt;stroke-linejoin:miter;stroke-opacity:1"
       d="m 180,220 c -13.41766,0.48904 -8.78034,-1.46486 -14.60723,24.0529 -0.25075,1.09813 2.2528,0 3.37919,0 2.75342,0 5.50684,0 8.26026,0 0.56319,0 1.12639,0 1.68959,0 0.43805,0 0.96218,-0.26079 1.31413,0 0.25384,0.18808 -0.024,0.6314 -0.0359,0.9471"
       id="path1697" />
    <path
       style="fill:none;stroke:#000000;stroke-width:1px;stroke-linecap:butt;stroke-linejoin:miter;stroke-opacity:1"
       d="m 200,245 c -4.3429,-1.41541 1.71677,0.38601 -6.07181,-0.75937 -2.41842,-0.35565 -6.88519,-3.03413 -8.44799,-4.31786 -2.95254,-2.4253 -1.77757,-10.05008 0.5632,-12.57811 1.85436,-2.00271 4.6309,-5.30637 6.00746,-3.3792 0.14549,0.20369 0.0637,0.50887 0,0.75094 -0.25181,0.95686 -0.37364,2.00376 -0.93867,2.81599 -0.81468,1.17111 -3.63042,2.48406 -5.06879,2.816 C 185.27784,230.52506 182.66676,229.50942 185,230"
       id="path1699" />
    <path
       style="fill:none;stroke:#000000;stroke-width:1px;stroke-linecap:butt;stroke-linejoin:miter;stroke-opacity:1"
       d="m 205,220 c -0.56172,1.19667 -1.26982,2.335 -1.68517,3.59 -0.15729,0.47527 0.0475,1.0035 0,1.50186 -0.0937,0.98376 -0.81782,4.94323 -0.93866,5.63199 -0.75733,4.31679 -1.87733,9.04202 -1.87733,13.51678 0,0.76824 0.18773,1.48455 0.18773,2.25279 0,0.0626 -0.007,-0.12558 0,-0.18773 0.1179,-1.00212 0.295,-1.99791 0.37547,-3.00373 0.44018,-5.50226 0.23949,-10.34018 2.81599,-15.3941 0.81982,-1.6081 1.70903,-3.24789 3.00373,-4.50559 1.75796,-1.70773 5.41712,-3.02841 7.50932,-1.1264 0.36165,0.32876 0.84282,0.64714 0.93867,1.1264 1.00482,5.02412 -5.20301,6.42891 -8.82345,6.94612 -0.68144,0.0973 -1.37824,0.0458 -2.06507,0 -0.25744,-0.0172 -0.96987,-0.0512 -0.75093,-0.18774 0.37324,-0.23271 0.87313,-0.1071 1.3097,-0.16065"
       id="path1701" />
    <path
       style="fill:none;stroke:#000000;stroke-width:1px;stroke-linecap:butt;stroke-linejoin:miter;stroke-opacity:1"
       d="m 215,225 c 10.281,-2.86768 -0.22728,-0.15068 5.39854,-1.22227 0.76037,-0.14483 1.48132,-0.50022 2.25279,-0.5632 2.30854,-0.18845 4.62991,-0.18773 6.94612,-0.18773 1.26431,0 4.57795,0.42436 3.00373,2.62826 -3.02842,4.23979 -7.38497,7.13679 -11.07624,10.70078 -0.79646,0.769 -1.52917,1.60264 -2.2528,2.44053 -0.46635,0.53999 -1.59519,1.03379 -1.31413,1.6896 0.25139,0.58657 1.24452,-0.29293 1.87733,-0.37547 0.80906,-0.10553 1.63502,-0.0578 2.44053,-0.18773 3.29695,-0.53177 6.48496,-1.61022 9.76211,-2.2528 1.05114,-0.2061 2.39584,0.34172 3.19146,-0.37546 C 235.80038,236.77986 235.07648,235.76484 235,235"
       id="path1703" />
    <path
       d="m 249.33849,251.81793 c -0.0228,0.36901 -0.0318,1.06485 -0.12324,2.06691 -0.01,0.0396 -0.0188,0.0848 -0.0275,0.13303 -0.009,0.0524 -0.0159,0.0942 -0.0263,0.15776 -0.0135,0.0822 -0.0314,0.18779 -0.0608,0.28713 l 0.0303,-0.0221 c -0.006,-1.3e-4 -0.0109,-9.5e-4 -0.0156,-0.002 -0.005,-0.001 -0.009,-0.003 -0.0133,-0.006 -0.008,-0.005 -0.0166,-0.0128 -0.0246,-0.0241 -0.008,-0.011 -0.015,-0.0248 -0.0217,-0.0414 -0.006,-0.0161 -0.0122,-0.0344 -0.0174,-0.0544 -0.0101,-0.0391 -0.0173,-0.0815 -0.0248,-0.12563 -0.004,-0.0207 -0.007,-0.0417 -0.0109,-0.0612 -0.004,-0.0191 -0.008,-0.0377 -0.0127,-0.0544 -0.0588,-0.33281 -0.0465,-0.68976 0.01,-1.07121 0.0984,-0.33108 0.24891,-0.67941 0.4888,-0.96522 0.0322,-0.0426 0.0696,-0.0714 0.11168,-0.0917 0.0419,-0.0202 0.0887,-0.0321 0.13915,-0.039 0.0502,-0.007 0.10264,-0.009 0.15633,-0.01 0.0526,-8.5e-4 0.10726,-7.5e-4 0.15839,-0.004 0.0711,0.006 0.14203,0.0264 0.20827,0.058 0.0661,0.0316 0.12759,0.0742 0.18416,0.1246 0.11326,0.1009 0.20565,0.2317 0.27527,0.36225 0.0842,0.19592 0.12038,0.41022 0.11922,0.62511 -0.001,0.21754 -0.0405,0.43502 -0.1052,0.63679 -0.0399,0.12813 -0.10363,0.24566 -0.18568,0.34553 -0.0845,0.10282 -0.18772,0.18628 -0.30415,0.2447 -0.0493,0.0304 -0.0988,0.051 -0.14985,0.0654 -0.0522,0.0147 -0.10614,0.0231 -0.1605,0.0273 -0.11225,0.009 -0.22953,-2.7e-4 -0.33541,-0.009 -0.11342,-0.0176 -0.21963,-0.0635 -0.31171,-0.12221 -0.10167,-0.0649 -0.18712,-0.14595 -0.25412,-0.22755 -0.0135,-0.0283 -0.0223,-0.0651 -0.0281,-0.0988 -0.008,-0.0439 -0.0114,-0.0844 -0.0164,-0.11718 a 0.03091648,0.03091648 90 0 0 -0.0611,0.009 c 0.005,0.0309 0.008,0.0709 0.0166,0.11849 0.006,0.0358 0.0163,0.0798 0.0376,0.12177 0.0742,0.0915 0.16436,0.1772 0.27233,0.24608 0.0978,0.0624 0.21202,0.11201 0.33785,0.13145 0.10744,0.008 0.22948,0.0179 0.34729,0.009 0.0574,-0.004 0.11556,-0.0133 0.17255,-0.0294 0.0558,-0.0158 0.11079,-0.0385 0.1632,-0.071 0.12203,-0.0611 0.23203,-0.15012 0.32177,-0.25935 0.0871,-0.10607 0.15473,-0.2307 0.19686,-0.36616 0.0662,-0.2067 0.10687,-0.43045 0.10807,-0.65508 0.001,-0.22194 -0.0361,-0.4449 -0.12537,-0.65222 -0.0731,-0.13727 -0.16962,-0.27455 -0.28983,-0.38164 -0.0602,-0.0536 -0.12644,-0.0998 -0.19865,-0.13424 -0.0725,-0.0346 -0.15071,-0.0573 -0.23445,-0.0639 -0.0536,0.003 -0.10562,0.003 -0.15983,0.004 -0.0541,8.7e-4 -0.10969,0.003 -0.16374,0.0102 -0.0546,0.007 -0.1081,0.0207 -0.15762,0.0446 -0.0502,0.0242 -0.0956,0.0591 -0.13315,0.10887 -0.24636,0.29345 -0.40004,0.65059 -0.50068,0.99044 -0.058,0.38966 -0.071,0.75375 -0.01,1.09861 0.005,0.0173 0.009,0.0338 0.0121,0.0521 0.004,0.0186 0.007,0.0389 0.0106,0.0597 0.007,0.0436 0.015,0.0887 0.0259,0.13078 0.006,0.0218 0.0121,0.0427 0.0198,0.0619 0.008,0.0198 0.0173,0.0382 0.0287,0.0542 0.0118,0.0166 0.0259,0.0308 0.0429,0.0412 0.009,0.005 0.0181,0.009 0.0281,0.0124 0.0102,0.003 0.0207,0.005 0.0315,0.005 0.003,8e-5 0.007,1.2e-4 0.0104,-5.1e-4 0.003,-6.3e-4 0.007,-0.002 0.01,-0.004 0.003,-0.002 0.005,-0.005 0.007,-0.008 0.002,-0.003 0.003,-0.006 0.004,-0.01 0.0306,-0.10353 0.049,-0.21274 0.0625,-0.29464 0.0105,-0.064 0.0169,-0.10503 0.0262,-0.1569 0.008,-0.0475 0.0173,-0.0915 0.0275,-0.13392 0.0925,-1.01033 0.10137,-1.70487 0.1241,-2.07311 a 0.03091648,0.03091648 90 0 0 -0.0617,-0.004 z"
       id="path-1"
       inkscape:path-effect="#path-effect1736;#path-effect1738"
       inkscape:original-d="m 249.36935,251.81983 c -0.037,0.65827 -0.0655,1.31702 -0.11096,1.97484 -0.006,0.0832 -0.0283,0.1646 -0.0427,0.24685 -0.0112,0.0637 -0.023,0.12737 -0.0342,0.19112 -0.012,0.0687 -0.0223,0.1687 -0.0512,0.23889 -0.0296,0.0716 -0.10248,-0.0817 -0.1195,-0.1513 -0.0283,-0.11573 -0.0508,-0.23279 -0.0683,-0.35037 -0.0396,-0.26616 -0.0166,-0.67566 0.0171,-0.92372 0.0313,-0.23064 0.40994,-1.12597 0.70846,-1.16261 0.0669,-0.008 0.35371,-0.0396 0.46093,-0.0159 0.26542,0.0587 0.47611,0.29623 0.59749,0.50964 0.25412,0.44679 0.17916,1.46564 -0.28168,1.81558 -0.0819,0.0622 -0.27405,0.19479 -0.40971,0.20704 -0.44073,0.0398 -0.62824,0.0105 -0.93892,-0.26279 -0.0324,-0.0284 -0.0643,-0.059 -0.0854,-0.0956 -0.0326,-0.0565 -0.0426,-0.1705 -0.0512,-0.23093"
       style="fill:#000000;fill-rule:nonzero;stroke:none;stroke-width:0.376507px;stroke-linecap:butt;stroke-linejoin:miter;stroke-opacity:1" />
    <path
       d="m 251.34822,254.15025 c -0.0365,-0.0214 -0.11007,-0.067 -0.16835,-0.13179 -0.0219,-0.0244 -0.0424,-0.0522 -0.059,-0.0838 -0.0153,-0.0292 -0.0272,-0.0618 -0.0338,-0.0981 -0.0521,-0.22063 -0.0771,-0.45376 -0.0631,-0.68476 0.001,-0.0172 0.002,-0.0347 0.004,-0.0524 0.0184,-0.21183 0.0742,-0.4612 0.21193,-0.69874 0.0452,-0.0691 0.10059,-0.16056 0.155,-0.23563 0.0537,-0.0741 0.11391,-0.14377 0.1882,-0.19863 0.0639,-0.0201 0.13895,-0.0257 0.21266,-0.0158 0.0744,0.01 0.147,0.0357 0.21336,0.0729 0.0679,0.0382 0.12861,0.0881 0.17834,0.14494 0.0518,0.0592 0.091,0.12518 0.11553,0.19331 0.003,0.01 0.006,0.0191 0.007,0.0243 a 0.03091647,0.03091647 90 0 0 0.0592,-0.0178 c -0.002,-0.005 -0.004,-0.0147 -0.008,-0.0259 -0.0279,-0.0774 -0.0712,-0.15 -0.12768,-0.21464 -0.0543,-0.0621 -0.12042,-0.11647 -0.1946,-0.15815 -0.0725,-0.0407 -0.15253,-0.0692 -0.23544,-0.0803 -0.0823,-0.011 -0.16704,-0.005 -0.24917,0.023 -0.0899,0.0646 -0.1543,0.1397 -0.20997,0.21649 -0.0555,0.0766 -0.11338,0.17183 -0.15757,0.23951 -0.14437,0.24889 -0.20194,0.5077 -0.22089,0.7258 -0.002,0.0182 -0.003,0.0362 -0.004,0.054 -0.0145,0.23781 0.0113,0.47704 0.0643,0.70114 0.007,0.0414 0.0216,0.0798 0.0395,0.11416 0.0193,0.037 0.043,0.069 0.0678,0.0964 0.065,0.0723 0.14559,0.12175 0.18299,0.14375 a 0.03091648,0.03091648 90 0 0 0.0313,-0.0533 z"
       id="path-1-0"
       inkscape:path-effect="#path-effect1743;#path-effect1745"
       inkscape:original-d="m 251.33255,254.1769 c -0.0484,-0.0345 -0.0983,-0.0672 -0.14511,-0.10352 -0.17689,-0.13753 -0.19014,-0.60238 -0.19631,-0.74057 -0.0139,-0.31054 0.0585,-0.67325 0.22192,-0.94761 0.0179,-0.03 0.2544,-0.4205 0.37557,-0.45389 0.32053,-0.0884 0.67686,0.16875 0.75114,0.44593"
       style="fill:#000000;fill-rule:nonzero;stroke:none;stroke-width:0.376507px;stroke-linecap:butt;stroke-linejoin:miter;stroke-opacity:1" />
    <path
       d="m 250.82456,253.06085 c 0.0262,-0.004 0.0798,-0.0105 0.15717,-0.0179 0.0948,-0.009 0.30513,-0.0206 0.52827,-0.0371 0.33231,-0.0245 0.52331,-0.0631 0.68527,-0.11333 a 0.03091647,0.03091647 90 0 0 -0.0183,-0.0591 c -0.15645,0.0486 -0.34265,0.0864 -0.67151,0.11073 -0.22148,0.0164 -0.43357,0.0281 -0.52956,0.0372 -0.0784,0.007 -0.13286,0.0146 -0.15962,0.0182 a 0.03091648,0.03091648 90 0 0 0.008,0.0613 z"
       id="path-1-5"
       inkscape:path-effect="#path-effect1750;#path-effect1752"
       inkscape:original-d="m 250.82041,253.03021 c 0.45635,-0.0616 0.9251,-0.0302 1.3657,-0.16722"
       style="fill:#000000;fill-rule:nonzero;stroke:none;stroke-width:0.376507px;stroke-linecap:butt;stroke-linejoin:miter;stroke-opacity:1" />
    <path
       d="m 252.18245,251.77801 c -0.0161,0.0472 -0.0277,0.10484 -0.0271,0.17731 4.1e-4,0.054 0.007,0.10977 0.0196,0.17301 0.0103,0.0536 0.024,0.11004 0.0366,0.16813 0.0114,0.0531 0.0219,0.10827 0.0262,0.16312 0.0374,0.25746 0.065,0.5307 0.1087,0.80384 0.0371,0.23192 0.0858,0.4597 0.16323,0.67993 0.0123,0.0351 0.0257,0.0709 0.0402,0.10707 0.003,0.019 0.0151,0.0452 0.0317,0.0686 0.008,0.0109 0.0166,0.0214 0.0265,0.0307 0.009,0.009 0.02,0.0172 0.0316,0.0234 0.0111,0.006 0.024,0.0108 0.038,0.0117 0.007,4.3e-4 0.0142,-1e-4 0.0214,-0.002 0.007,-0.002 0.0141,-0.005 0.0206,-0.009 0.006,-0.004 0.012,-0.009 0.0169,-0.0156 0.005,-0.006 0.009,-0.0128 0.0124,-0.0202 0.007,-0.0145 0.0114,-0.032 0.0142,-0.0525 0.0538,-0.13111 0.0863,-0.27597 0.11184,-0.42637 0.0248,-0.1463 0.0426,-0.29462 0.0693,-0.43757 0.0657,-0.42928 0.12513,-0.78518 0.15301,-1.16961 0.0104,-0.088 0.0222,-0.14913 0.0323,-0.19326 a 0.03091648,0.03091648 90 0 0 -0.0603,-0.0138 c -0.0106,0.0463 -0.0228,0.1096 -0.0336,0.20125 -0.0278,0.38274 -0.0867,0.73569 -0.15241,1.16511 -0.027,0.14463 -0.0448,0.29327 -0.0693,0.43758 -0.0252,0.14859 -0.0568,0.28848 -0.11021,0.42111 -0.004,0.0237 -0.007,0.0347 -0.0108,0.0419 -0.002,0.004 -0.003,0.006 -0.005,0.008 -0.009,0.004 -0.0136,0.003 -0.0193,-5.5e-4 -0.006,-0.003 -0.0121,-0.008 -0.0185,-0.0139 -0.007,-0.006 -0.013,-0.0137 -0.0186,-0.0217 -0.0125,-0.0176 -0.0202,-0.0357 -0.0231,-0.0502 -0.0158,-0.0409 -0.0289,-0.0758 -0.0409,-0.11011 -0.0757,-0.21541 -0.12367,-0.43921 -0.16052,-0.6692 -0.0434,-0.27069 -0.0709,-0.54374 -0.10833,-0.80089 -0.004,-0.0571 -0.0155,-0.11557 -0.0271,-0.16933 -0.0128,-0.0593 -0.0264,-0.11507 -0.0363,-0.16678 -0.0118,-0.061 -0.0181,-0.11278 -0.0185,-0.1618 -5e-4,-0.0652 0.01,-0.11597 0.0239,-0.15691 a 0.03091647,0.03091647 90 0 0 -0.0585,-0.0199 z"
       id="path-1-7"
       inkscape:path-effect="#path-effect1757;#path-effect1759"
       inkscape:original-d="m 252.21172,251.78797 c -0.009,0.0372 -0.0256,0.0735 -0.0256,0.11149 0,0.23592 0.0352,0.24424 0.0683,0.46185 0.0774,0.50973 0.10993,1.04746 0.27314,1.54484 0.008,0.0251 0.0794,0.24401 0.1451,0.25482 0.0342,0.006 0.0458,-0.0499 0.0597,-0.0796 0.0579,-0.12337 0.0899,-0.30417 0.11097,-0.43001 0.0647,-0.38685 0.1235,-0.77455 0.17924,-1.16261 0.0305,-0.21252 0.0286,-0.4272 0.0768,-0.63705"
       style="fill:#000000;fill-rule:nonzero;stroke:none;stroke-width:0.376507px;stroke-linecap:butt;stroke-linejoin:miter;stroke-opacity:1" />
    <path
       d="m 254.67023,253.59383 c -0.026,0.0373 -0.0638,0.0763 -0.12162,0.1068 -0.0427,0.0225 -0.0941,0.0393 -0.15728,0.0491 -0.0537,0.008 -0.11199,0.0111 -0.17635,0.01 -0.0586,-0.001 -0.11492,-0.005 -0.17506,-0.009 -0.15464,-0.0208 -0.33035,-0.0504 -0.50247,-0.0997 -0.008,-0.002 -0.0168,-0.005 -0.0252,-0.007 -0.13081,-0.039 -0.28855,-0.0983 -0.44078,-0.19417 -0.0487,-0.0277 -0.097,-0.0622 -0.14056,-0.10369 -0.0403,-0.0384 -0.0766,-0.0829 -0.10364,-0.13234 -0.0254,-0.0464 -0.0426,-0.0974 -0.0468,-0.15141 -0.004,-0.0513 0.004,-0.10668 0.0289,-0.1647 0.0137,-0.0767 0.0356,-0.14319 0.0669,-0.20642 0.0303,-0.0613 0.0692,-0.11913 0.11544,-0.17334 0.0893,-0.10483 0.2044,-0.19406 0.33066,-0.26499 0.11271,-0.0614 0.22904,-0.13306 0.34864,-0.18476 0.0591,-0.0256 0.11927,-0.0463 0.18086,-0.059 0.0612,-0.0126 0.12391,-0.0172 0.18871,-0.0106 0.11108,0.005 0.22122,0.0123 0.32792,0.0322 0.10055,0.0187 0.19643,0.0478 0.28462,0.0936 -0.006,0.035 -0.0206,0.0678 -0.0409,0.0986 -0.0246,0.0372 -0.0581,0.071 -0.0966,0.10087 -0.0393,0.0305 -0.0834,0.0566 -0.12813,0.0779 -0.0459,0.0219 -0.0921,0.0387 -0.13462,0.0504 -0.56903,0.19896 -1.08241,0.33231 -1.57672,0.40445 -0.3302,0.0544 -0.77919,0.16596 -0.92474,0.20006 a 0.03091648,0.03091648 90 0 0 0.0141,0.0602 c 0.14754,-0.0346 0.59319,-0.14527 0.92013,-0.19917 0.49851,-0.0727 1.0158,-0.20723 1.58563,-0.40655 0.0439,-0.012 0.0936,-0.0301 0.14287,-0.0536 0.048,-0.0229 0.0961,-0.0512 0.13939,-0.0849 0.0425,-0.033 0.081,-0.0715 0.11022,-0.11557 0.0288,-0.0435 0.0487,-0.0927 0.0537,-0.14702 2.8e-4,-0.003 5.3e-4,-0.006 2.5e-4,-0.009 -2.7e-4,-0.003 -0.001,-0.006 -0.003,-0.009 -0.001,-0.003 -0.003,-0.005 -0.006,-0.007 -0.002,-0.002 -0.005,-0.003 -0.008,-0.005 -0.10054,-0.0556 -0.20955,-0.0893 -0.32177,-0.11018 -0.11106,-0.0207 -0.22468,-0.0286 -0.33484,-0.033 -0.07,-0.007 -0.13903,-0.002 -0.20558,0.0117 -0.0668,0.0138 -0.13106,0.0361 -0.19291,0.0628 -0.12301,0.0532 -0.24509,0.1281 -0.35403,0.18742 -0.13169,0.074 -0.25284,0.16757 -0.3478,0.27898 -0.0492,0.0577 -0.091,0.11979 -0.12379,0.18603 -0.0339,0.0684 -0.0578,0.14069 -0.0704,0.21647 -0.0271,0.0601 -0.0364,0.12554 -0.0317,0.18685 0.005,0.0642 0.0254,0.12354 0.0542,0.1763 0.0306,0.056 0.0712,0.1055 0.11524,0.14743 0.0476,0.0454 0.10004,0.0828 0.15147,0.11197 0.1574,0.0991 0.32087,0.16042 0.45485,0.20039 0.009,0.003 0.0172,0.005 0.0258,0.008 0.17626,0.0505 0.35533,0.0805 0.51321,0.10169 0.0618,0.004 0.11977,0.009 0.18024,0.01 0.0667,0.001 0.1287,-0.002 0.18694,-0.0107 0.0687,-0.0107 0.12693,-0.0293 0.17661,-0.0555 0.0678,-0.0357 0.11277,-0.0821 0.14352,-0.12612 a 0.03091647,0.03091647 90 0 0 -0.0507,-0.0354 z"
       id="path-1-59"
       inkscape:path-effect="#path-effect1764;#path-effect1766"
       inkscape:original-d="m 254.69559,253.61152 c -0.21489,0.38126 -1.34436,0.0639 -1.6047,-0.11149 -0.0964,-0.0649 -0.18774,-0.13839 -0.2646,-0.22296 -0.13242,-0.14571 -0.0543,-0.36394 -0.009,-0.5176 0.10232,-0.34363 0.48324,-0.5413 0.78528,-0.69279 0.088,-0.0441 0.18215,-0.0875 0.28168,-0.0956 0.20957,-0.017 0.59843,0.0123 0.80235,0.13537 0.0216,0.0131 0.005,0.0514 -0.009,0.0717 -0.14442,0.21173 -0.22087,0.23785 -0.48653,0.32649 -0.28129,0.0939 -0.5644,0.18483 -0.85357,0.25482 -0.31488,0.0762 -0.63838,0.11748 -0.95598,0.18315 -0.20886,0.0432 -0.41541,0.0956 -0.62311,0.14334"
       style="fill:#000000;fill-rule:nonzero;stroke:none;stroke-width:0.376507px;stroke-linecap:butt;stroke-linejoin:miter;stroke-opacity:1" />
    <path
       inkscape:path-effect="#path-effect1771;#path-effect1773"
       inkscape:original-d="m 248.4219,253.59559 c 0.41016,0.28841 0.928,0.29358 1.41691,0.31852 0.19621,0.01 0.3925,0.0201 0.58896,0.0239 0.73042,0.014 1.19299,-0.0154 1.9888,-0.0796 0.18856,-0.0152 1.03548,-0.1346 1.23767,-0.15926 0.58123,-0.0709 0.50427,-0.0353 1.11817,-0.15927 0.0756,-0.0153 0.27961,-0.0156 0.22193,-0.0637 -0.11228,-0.0937 -0.29319,-0.0796 -0.44385,-0.0796 -0.3955,0 -0.79127,-0.007 -1.18646,0.008 -1.30116,0.0479 -2.63254,0.16082 -3.90078,0.4539 -0.37787,0.0873 -0.75384,0.18231 -1.12671,0.28667 -0.1681,0.047 -0.33192,0.10687 -0.49507,0.16722 -0.005,0.002 -0.006,0.0163 0,0.0159 0.77487,-0.0542 1.54114,-0.17773 2.31316,-0.25482 0.63958,-0.0639 1.27857,-0.13739 1.92052,-0.17519 0.90785,-0.0534 1.8364,-0.0319 2.74848,-0.0319"
       style="fill:#000000;fill-rule:nonzero;stroke:none;stroke-width:0.376507px;stroke-linecap:butt;stroke-linejoin:miter;stroke-opacity:1"
       d="m 248.40499,253.62147 c 0.11398,0.0745 0.26753,0.15392 0.47741,0.21305 0.14978,0.0422 0.31499,0.0707 0.51009,0.088 0.30354,0.0269 0.6616,0.0165 1.03281,0.0463 0.18951,0.006 0.38164,0.007 0.57896,0.004 0.84654,-0.0147 1.64035,-0.1017 2.9205,-0.27295 0.33357,-0.0284 0.69821,-0.0879 1.08663,-0.17716 0.007,-0.002 0.0139,-0.003 0.0197,-0.007 0.003,-0.002 0.005,-0.005 0.007,-0.007 0.002,-0.003 0.003,-0.006 0.004,-0.01 5.1e-4,-0.004 2.1e-4,-0.007 -8.1e-4,-0.0105 -0.001,-0.003 -0.003,-0.007 -0.005,-0.009 -0.004,-0.006 -0.0106,-0.009 -0.0168,-0.0127 -0.0905,-0.0514 -0.18792,-0.0807 -0.29017,-0.0961 -0.0998,-0.015 -0.20327,-0.0166 -0.30849,-0.0132 -0.10324,0.003 -0.20784,0.0113 -0.31093,0.0156 -0.10183,0.004 -0.20195,0.005 -0.29765,-0.007 -2.02027,0.0333 -4.06189,0.25209 -5.98118,0.9184 -0.008,0.003 -0.0166,0.006 -0.0229,0.0121 -0.003,0.003 -0.006,0.007 -0.007,0.0108 -0.002,0.004 -0.002,0.009 -0.001,0.0128 6.7e-4,0.004 0.002,0.008 0.005,0.0118 0.003,0.003 0.006,0.006 0.0101,0.008 0.008,0.004 0.0168,0.004 0.0255,0.005 0.20584,0.005 0.42786,-0.0153 0.64632,-0.0409 0.22664,-0.0266 0.45155,-0.0591 0.65948,-0.08 1.7989,-0.22033 3.29616,-0.36662 4.81753,-0.32845 0.46944,0.002 0.56425,0.003 0.85955,0.003 a 0.03091647,0.03091647 90 0 0 0,-0.0618 c -0.29512,0 -0.38966,-0.001 -0.85863,-0.003 -1.52554,-0.0383 -3.02658,0.10851 -4.82531,0.32883 -0.20911,0.0211 -0.43433,0.0536 -0.65983,0.08 -0.14982,0.0176 -0.29995,0.0324 -0.4446,0.0384 1.85708,-0.61483 3.82573,-0.82054 5.77407,-0.85294 0.0965,0.0119 0.20045,0.0112 0.3034,0.007 0.10457,-0.004 0.20895,-0.0124 0.31033,-0.0156 0.10361,-0.003 0.20282,-0.002 0.29734,0.0126 0.067,0.0101 0.13082,0.0263 0.1912,0.0511 -0.35394,0.078 -0.68663,0.13048 -0.99356,0.15664 -1.28119,0.17135 -2.07206,0.25791 -2.91485,0.27257 -0.19639,0.003 -0.38753,0.002 -0.57447,-0.003 -0.37504,-0.0302 -0.73165,-0.0196 -1.03076,-0.0462 -0.19222,-0.0171 -0.35352,-0.045 -0.49879,-0.0859 -0.20324,-0.0573 -0.35109,-0.13391 -0.46036,-0.2053 a 0.03091647,0.03091647 90 0 0 -0.0338,0.0518 z"
       id="path-1-8" />
    <path
       d="m 244.12646,221.38407 c -0.33997,0.25472 -0.76759,0.53039 -1.43224,0.88366 -0.45093,0.23968 -0.98648,0.49791 -1.5844,0.80718 -0.48407,0.25038 -1.05088,0.55879 -1.58619,0.93222 -0.48042,0.33513 -0.9771,0.75015 -1.41705,1.28509 -0.0246,0.0299 -0.0459,0.0623 -0.0637,0.0967 -0.1256,0.24299 -0.23637,0.49336 -0.33229,0.75102 -0.1564,0.42013 -0.28141,0.88133 -0.36218,1.38792 -0.10733,0.67318 -0.13273,1.40239 -0.0649,2.19479 0.11493,1.34198 0.4849,2.73474 1.02709,4.18473 0.003,0.008 0.006,0.016 0.01,0.0239 0.35266,0.82342 0.6687,1.80328 1.12313,2.80708 0.21028,0.46449 0.45643,0.93999 0.76102,1.39133 0.29041,0.43033 0.63823,0.84528 1.06852,1.21503 0.23467,0.24034 0.51185,0.43738 0.81368,0.57526 0.30309,0.13846 0.63748,0.21993 0.97858,0.2176 0.33717,-0.002 0.68035,-0.0869 0.99209,-0.27814 0.28738,-0.17624 0.53039,-0.4323 0.71336,-0.76224 1.12118,-1.1776 2.09871,-2.51735 2.8551,-3.97863 0.76867,-1.48501 1.30341,-3.08492 1.53248,-4.75288 0.17167,-1.12462 0.3442,-2.3206 0.34174,-3.51387 -0.001,-0.60999 -0.0483,-1.21681 -0.16322,-1.81239 -0.11764,-0.6095 -0.30553,-1.20216 -0.58376,-1.76987 -0.19051,-0.38585 -0.44677,-0.69667 -0.73751,-0.94543 -0.29976,-0.25647 -0.63468,-0.44586 -0.97178,-0.58574 -0.35214,-0.14612 -0.71545,-0.2419 -1.06216,-0.30348 -0.36698,-0.0652 -0.72613,-0.094 -1.05337,-0.10082 -0.0162,-3.4e-4 -0.0325,4e-5 -0.0487,0.001 -0.28959,0.0197 -0.54305,0.10003 -0.72583,0.16777 -0.17303,0.0641 -0.52003,0.21666 -0.56532,0.23556 a 0.54911162,0.54911162 90 0 0 0.42296,1.0135 c 0.14982,-0.0625 0.33459,-0.14908 0.52401,-0.21928 0.13474,-0.0499 0.26698,-0.0883 0.39658,-0.10009 0.27342,0.007 0.56549,0.0316 0.85764,0.0835 0.28571,0.0507 0.56957,0.1271 0.8333,0.23654 0.25179,0.10448 0.48282,0.23824 0.67872,0.40585 0.18784,0.16072 0.34758,0.35581 0.46603,0.59572 0.23003,0.46935 0.38957,0.96829 0.4909,1.49325 0.0993,0.51445 0.14217,1.05064 0.14331,1.60651 0.002,1.09809 -0.15674,2.21635 -0.33035,3.35407 -0.21173,1.54119 -0.70458,3.0216 -1.42096,4.40558 -0.71627,1.38377 -1.64902,2.65757 -2.72493,3.77824 -0.0373,0.0388 -0.0686,0.0829 -0.0931,0.13085 -0.10306,0.20212 -0.22727,0.3256 -0.3493,0.40044 -0.12459,0.0764 -0.26804,0.11505 -0.42542,0.11613 -0.16211,0.001 -0.33887,-0.038 -0.51477,-0.11834 -0.17959,-0.082 -0.3505,-0.20359 -0.49647,-0.35624 -0.013,-0.0136 -0.0267,-0.0265 -0.0411,-0.0388 -0.35071,-0.29833 -0.64081,-0.64051 -0.89064,-1.01071 -0.25906,-0.38385 -0.4764,-0.80033 -0.67086,-1.2299 -0.41636,-0.91971 -0.73283,-1.89421 -1.10894,-2.77452 -0.51803,-1.38757 -0.85371,-2.67475 -0.9571,-3.88194 -0.0609,-0.71168 -0.0368,-1.35092 0.0552,-1.92817 0.0692,-0.43431 0.17562,-0.82511 0.30687,-1.17767 0.0737,-0.19808 0.15778,-0.39066 0.25211,-0.57785 0.35052,-0.4161 0.75102,-0.75203 1.16004,-1.03736 0.47474,-0.33118 0.99001,-0.61313 1.46241,-0.85748 0.5765,-0.29819 1.12103,-0.56081 1.59529,-0.81288 0.70389,-0.37413 1.18129,-0.67931 1.5753,-0.97452 a 0.54911162,0.54911162 90 0 0 -0.6585,-0.8789 z"
       id="path-1-54"
       inkscape:path-effect="#path-effect1949;#path-effect1951"
       inkscape:original-d="m 244.45571,221.82352 c -1.49431,1.17909 -5.39694,2.46921 -6.09148,4.12347 -1.38093,3.28912 0.0308,6.8142 1.26515,9.79322 0.44503,1.074 0.92444,2.21241 1.78059,2.99888 0.57846,0.53137 1.68409,1.24845 2.24916,0.70286 2.05458,-1.98373 3.80783,-4.50378 4.54518,-7.26291 0.29454,-1.10214 2.21303,-9.00622 -1.64001,-10.02751 -1.64982,-0.4373 -1.82255,-0.31002 -2.7646,0.0937"
       style="fill:#000000;fill-rule:nonzero;stroke:none;stroke-width:1px;stroke-linecap:butt;stroke-linejoin:miter;stroke-opacity:1" />
  </g>
</svg>
